<?xml version="1.0" encoding="UTF-8" standalone="no"?>
<!-- Created with Inkscape (http://www.inkscape.org/) -->

<svg
   xmlns:dc="http://purl.org/dc/elements/1.1/"
   xmlns:cc="http://creativecommons.org/ns#"
   xmlns:rdf="http://www.w3.org/1999/02/22-rdf-syntax-ns#"
   xmlns:svg="http://www.w3.org/2000/svg"
   xmlns="http://www.w3.org/2000/svg"
   xmlns:sodipodi="http://sodipodi.sourceforge.net/DTD/sodipodi-0.dtd"
   xmlns:inkscape="http://www.inkscape.org/namespaces/inkscape"
   id="svg2985"
   height="64"
   viewBox="0 0 240 64"
   width="240"
   version="1.1"
   sodipodi:docname="gpsts_logo.svg"
   inkscape:version="0.92.5 (2060ec1f9f, 2020-04-08)">
  <defs
     id="defs94" />
  <sodipodi:namedview
     pagecolor="#ffffff"
     bordercolor="#666666"
     borderopacity="1"
     objecttolerance="10"
     gridtolerance="10"
     guidetolerance="10"
     inkscape:pageopacity="0"
     inkscape:pageshadow="2"
     inkscape:window-width="1920"
     inkscape:window-height="1023"
     id="namedview92"
     showgrid="false"
     inkscape:zoom="3.60625"
     inkscape:cx="120.88084"
     inkscape:cy="-4.4632415"
     inkscape:window-x="0"
     inkscape:window-y="25"
     inkscape:window-maximized="1"
     inkscape:current-layer="svg2985" />
  <metadata
     id="metadata2990">
    <rdf:RDF>
      <cc:Work
         rdf:about="">
        <dc:format>image/svg+xml</dc:format>
        <dc:type
           rdf:resource="http://purl.org/dc/dcmitype/StillImage" />
        <dc:title />
      </cc:Work>
    </rdf:RDF>
  </metadata>
  <g
     id="layer1">
    <rect
       id="rect3778"
       height="64"
       width="236.1"
       y="0"
       x="0"
       fill="none" />
    <circle
       id="path3038"
       transform="rotate(-30)"
       cy="43.713"
       cx="11.713"
       stroke-width="10.699"
       fill="#fff"
       ry="28.995"
       rx="28.995" />
    <g
       id="g88"
       fill="#336">
      <g
         id="text3003"
         aria-label="Traccar" />
    </g>
  </g>
  <text
     xml:space="preserve"
     style="font-style:normal;font-weight:normal;font-size:40px;line-height:1.25;font-family:sans-serif;letter-spacing:0px;word-spacing:0px;fill:#000080;fill-opacity:1;stroke:none;"
     x="97.469673"
     y="34.051991"
     id="text98"><tspan
       sodipodi:role="line"
       id="tspan96"
       x="97.469673"
       y="34.051991">GPS</tspan></text>
  <text
     xml:space="preserve"
     style="font-style:normal;font-weight:normal;font-size:16px;line-height:1.25;font-family:sans-serif;letter-spacing:0px;word-spacing:0px;fill:#000080;fill-opacity:1;stroke:none;"
     x="74.454079"
     y="56.928944"
     id="text102"><tspan
       sodipodi:role="line"
       id="tspan100"
       x="74.454079"
       y="56.928944">Tracking System</tspan></text>
  <path
     style="fill:#000080;stroke-width:0.07943584"
     d="M 30.651027,62.159239 C 19.638281,61.570162 10.141987,55.367684 5.2523735,45.570169 3.5968665,42.252972 2.6339855,38.760165 2.2864575,34.811402 c -0.120871,-1.373299 -0.05145,-4.951797 0.120307,-6.200777 0.953014,-6.930685 3.90216,-12.834134 8.7915595,-17.598482 4.72042,-4.5996874 10.390323,-7.3442484 17.069629,-8.2626984 1.244664,-0.17115 4.825953,-0.241078 6.200784,-0.121134 7.949229,0.693811 15.069244,4.356597 20.280291,10.4328964 3.251152,3.790969 5.604297,8.718493 6.55313,13.72235 0.378219,1.994587 0.448001,2.86071 0.448001,5.560505 0,2.699783 -0.06978,3.565918 -0.448001,5.560517 -0.7281,3.839788 -2.24388,7.569161 -4.418645,10.871509 -2.901513,4.405899 -7.132652,8.110347 -11.894315,10.413712 -4.40863,2.132586 -9.658033,3.219729 -14.338171,2.969389 z m -4.94486,-9.965792 c 0.475426,-0.230139 0.73715,-0.644926 0.792564,-1.256056 l 0.0437,-0.481908 h 5.460203 5.460205 l 0.0354,0.417032 c 0.04821,0.567776 0.265588,0.986461 0.641281,1.235076 0.269974,0.178658 0.420241,0.212715 1.062592,0.240806 0.904204,0.03957 1.35467,-0.07064 1.683612,-0.41168 0.304963,-0.316208 0.409703,-0.594662 0.409703,-1.089222 v -0.392012 h 0.91873 c 0.505307,0 0.987881,-0.03697 1.072385,-0.08222 0.142609,-0.07643 0.153654,-0.17873 0.153654,-1.425335 0,-1.297885 -0.0059,-1.347275 -0.17655,-1.466774 -0.09709,-0.06804 -0.327238,-0.123623 -0.511414,-0.123623 h -0.334863 l -0.02477,-2.601532 -0.02477,-2.601523 -0.198591,-0.353926 c -0.288419,-0.514028 -0.736765,-0.800526 -1.338127,-0.855055 l -0.488893,-0.0443 v -7.489566 -7.489555 l -0.199888,-0.237557 c -0.127751,-0.15182 -0.376973,-0.297343 -0.690626,-0.403258 -0.587971,-0.198563 -0.727075,-0.204954 -0.891121,-0.04087 -0.108088,0.108089 -0.125277,0.462512 -0.128186,2.64125 l -0.0034,2.516423 -0.191454,-0.460975 c -0.35271,-0.849219 -0.80657,-1.332214 -1.602045,-1.704876 L 36.17179,28.014972 h -4.170404 -4.17038 l -0.499019,0.230434 c -0.668911,0.308896 -1.292364,0.978393 -1.542138,1.656041 l -0.183046,0.496615 -0.03973,-2.564796 c -0.04185,-2.702489 -0.0434,-2.712955 -0.401615,-2.716475 -0.274281,-0.0024 -1.099028,0.33681 -1.276151,0.52532 l -0.188976,0.201139 -0.02104,7.529092 -0.02104,7.529116 -0.487715,0.0443 c -0.600104,0.05434 -1.048756,0.341323 -1.336951,0.854948 l -0.198588,0.353939 -0.02562,2.601523 -0.02563,2.601523 h -0.333975 c -0.183709,0 -0.413461,0.05564 -0.510561,0.123634 -0.170215,0.119263 -0.176547,0.170307 -0.176547,1.424177 0,1.076369 0.02151,1.322019 0.124821,1.425335 0.09954,0.09946 0.316884,0.124874 1.072384,0.124874 h 0.947557 v 0.399737 c 0,0.484472 0.142447,0.841245 0.446973,1.119498 0.328695,0.300332 0.609489,0.373891 1.454266,0.380943 0.610034,0.0047 0.814157,-0.02504 1.097485,-0.162215 z m -1.638763,-5.791885 c -0.474546,-0.09817 -0.700448,-0.263132 -0.765412,-0.558904 -0.07041,-0.320532 0.0229,-1.072849 0.145254,-1.171263 0.334887,-0.269334 1.008089,-0.145027 2.288061,0.422466 1.162997,0.515657 1.367402,0.746257 1.030462,1.16258 -0.145074,0.179261 -0.200281,0.188179 -1.251113,0.202319 -0.604638,0.0083 -1.255902,-0.0176 -1.447252,-0.05729 z m 4.818173,-0.04028 c -0.119046,-0.06544 -0.253096,-0.187435 -0.297885,-0.27113 -0.05124,-0.0958 -0.08143,-1.201539 -0.08143,-2.983458 v -2.831296 l 0.232198,-0.232207 0.232197,-0.232206 h 3.030782 3.030784 l 0.232197,0.232206 0.232196,0.232207 v 2.86136 2.861372 l -0.191643,0.222874 -0.191641,0.222886 -3.00565,0.01807 c -2.544434,0.01536 -3.038865,-5.9e-5 -3.222102,-0.100764 z m 8.53671,0.04501 c -0.09866,-0.04241 -0.219903,-0.165865 -0.269435,-0.274591 -0.14649,-0.3215 0.08605,-0.572442 0.863153,-0.931472 1.06571,-0.492362 1.818602,-0.721722 2.17269,-0.661889 0.395077,0.06674 0.461744,0.15958 0.51848,0.722135 0.100634,0.997672 -0.155883,1.158044 -1.913975,1.196613 -0.657675,0.01441 -1.271905,-0.0083 -1.370913,-0.0508 z M 26.123185,35.315211 c 0,-1.68894 0.02602,-1.808959 0.46346,-2.137157 0.205895,-0.154478 0.352844,-0.159474 5.319757,-0.180431 5.669107,-0.02386 5.481856,-0.03993 5.813163,0.496143 0.146306,0.236731 0.160124,0.393665 0.160124,1.818575 v 1.55947 H 32.001436 26.123185 Z M 13.770912,46.810915 c 0.556063,-0.255076 0.971247,-0.783763 1.068055,-1.360021 l 0.04671,-0.278029 2.991633,-0.02079 2.991632,-0.02091 0.0256,-1.647347 0.0256,-1.647346 0.238307,-0.430735 c 0.283817,-0.512987 0.877373,-1.008527 1.363904,-1.138647 l 0.348228,-0.09309 -0.02198,-1.075188 -0.02198,-1.075199 -4.635857,-0.02056 -4.635857,-0.02044 0.0552,-0.297237 c 0.06933,-0.373312 0.762765,-2.472337 0.985187,-2.982182 0.134946,-0.309298 0.23131,-0.410027 0.510487,-0.533507 0.554059,-0.245106 1.726946,-0.396701 3.471022,-0.448655 1.485184,-0.0443 3.84995,0.06001 4.172882,0.18388 0.09724,0.03721 0.116653,-0.07395 0.116653,-0.669402 0,-0.673679 -0.01016,-0.716832 -0.178731,-0.761284 -0.09831,-0.02587 -0.881025,-0.08919 -1.739386,-0.140373 -1.7076,-0.101945 -4.088522,-0.0059 -5.072239,0.202072 -0.773649,0.164542 -1.540375,0.500088 -1.93357,0.846195 -0.403764,0.355415 -0.519661,0.604337 -1.310282,2.814474 l -0.539908,1.509278 -0.78908,0.04595 c -0.914453,0.05328 -1.031868,0.09238 -1.189196,0.396642 -0.1531045,0.296067 -0.1443445,0.520454 0.0358,0.917155 0.196051,0.431715 0.432119,0.58644 0.894797,0.58644 h 0.375981 l -0.115637,0.327738 c -0.09228,0.261526 -0.115637,0.858137 -0.115637,2.953749 0,2.500546 0.0079,2.642419 0.165855,2.968657 0.191163,0.394882 0.711034,0.871273 1.062242,0.973407 0.409087,0.119016 1.016492,0.0899 1.353568,-0.06473 z M 13.22583,42.355957 c -0.416973,-0.04323 -0.694159,-0.116593 -0.834076,-0.220877 -0.189815,-0.141401 -0.21174,-0.213023 -0.2327,-0.760233 -0.02868,-0.748501 0.09805,-0.928424 0.653893,-0.928424 0.592502,0 2.460103,0.755164 2.814562,1.138057 0.216854,0.23425 0.187507,0.551533 -0.06342,0.685834 -0.210841,0.112931 -1.589057,0.163325 -2.338247,0.08564 z m 38.328066,4.512026 c 0.412028,-0.123504 0.890693,-0.546063 1.093873,-0.965776 0.157934,-0.326238 0.165857,-0.468099 0.165857,-2.968633 0,-2.095635 -0.02336,-2.692235 -0.115637,-2.953761 l -0.115637,-0.327738 h 0.375978 c 0.46268,0 0.698748,-0.154725 0.894798,-0.58644 0.180148,-0.39669 0.188912,-0.6211 0.03582,-0.917167 -0.159326,-0.308092 -0.283056,-0.349922 -1.181529,-0.399477 l -0.781411,-0.04312 -0.699635,-1.923497 c -0.3848,-1.05793 -0.783834,-2.027321 -0.886741,-2.154204 -0.430831,-0.531215 -1.473843,-0.986567 -2.671685,-1.166372 -1.151227,-0.172823 -3.449459,-0.231119 -4.902957,-0.12439 -1.785429,0.131136 -1.628433,0.04465 -1.628433,0.897428 0,0.595949 0.0194,0.707369 0.116641,0.670052 0.322931,-0.123882 2.6877,-0.228119 4.172884,-0.18388 2.509503,0.07478 3.659385,0.319823 3.926731,0.836792 0.162275,0.313821 0.97003,2.741175 1.040754,3.127564 l 0.0544,0.297224 -4.635855,0.02056 -4.635856,0.02044 -0.02198,1.0752 -0.022,1.0752 0.348227,0.09309 c 0.486529,0.130119 1.080088,0.625647 1.363906,1.138635 l 0.238307,0.430746 0.0256,1.647347 0.0256,1.647334 2.991636,0.02091 2.991635,0.02079 0.04671,0.278029 c 0.09469,0.563665 0.561737,1.14668 1.107772,1.38282 0.335829,0.14524 0.864668,0.15938 1.28222,0.03426 z M 48.853085,42.36223 c -0.622518,-0.08056 -0.794856,-0.355663 -0.476424,-0.760492 0.295507,-0.375674 2.193972,-1.155315 2.813261,-1.155315 0.539036,0 0.670473,0.176674 0.670473,0.901219 0,0.651187 -0.06822,0.762855 -0.556048,0.910339 -0.361364,0.10927 -1.905246,0.174902 -2.451262,0.104308 z M 32.884253,24.958969 c 2.076894,-2.134286 3.627967,-4.438916 4.278677,-6.357369 0.816681,-2.407781 0.381847,-4.707012 -1.187418,-6.278606 -1.098819,-1.100437 -2.185913,-1.583345 -3.708154,-1.647199 -1.084103,-0.0455 -1.803455,0.09564 -2.702144,0.530286 -1.917401,0.927225 -3.124287,2.854356 -3.124287,4.988776 0,2.111917 1.030159,4.425146 3.12358,7.014029 0.800802,0.990324 2.291808,2.541927 2.442651,2.541927 0.0586,0 0.453295,-0.356325 0.877095,-0.791844 z m -1.380524,-6.440012 c -1.811652,-0.449694 -2.459879,-2.630421 -1.175348,-3.954036 0.469169,-0.483446 0.966458,-0.686347 1.673055,-0.682634 0.451396,0.0025 0.685714,0.04663 0.966932,0.182601 1.498064,0.724298 1.843026,2.664343 0.676746,3.805977 -0.565757,0.553802 -1.446874,0.820466 -2.141385,0.648092 z"
     id="path147"
     inkscape:connector-curvature="0" />
</svg>
